<svg width="180" height="180" viewBox="0 0 180 180" fill="none" xmlns="http://www.w3.org/2000/svg">
<circle opacity="0.1" cx="90" cy="90" r="90" fill="#A9A9B0"/>
<path d="M122.566 96.9409L108.398 84.1463H71.6014L57.4337 96.9409L55.4824 94.7663L70.4814 81.2195H109.518L124.517 94.7663L122.566 96.9409Z" fill="#7E7D7D"/>
<path fill-rule="evenodd" clip-rule="evenodd" d="M59.375 120H120.625C123.038 120 125 118.031 125 115.61V94.3903H101.667V95.8537C101.667 99.4851 98.723 102.439 95.1042 102.439H84.8958C81.277 102.439 78.3333 99.4851 78.3333 95.8537V94.3903H55V115.61C55 118.031 56.9622 120 59.375 120ZM57.9167 115.61V97.3171H75.5282C76.2319 101.871 80.165 105.366 84.8958 105.366H95.1042C99.835 105.366 103.768 101.871 104.472 97.3171H122.083V115.61C122.083 116.417 121.429 117.073 120.625 117.073H59.375C58.5707 117.073 57.9167 116.417 57.9167 115.61Z" fill="#7E7D7D"/>
<rect x="75.9219" y="61.4246" width="9.50731" height="2.92696" transform="rotate(57.5288 75.9219 61.4246)" fill="#7E7D7D"/>
<rect x="104.82" y="61.411" width="2.91664" height="9.53992" transform="rotate(32.4664 104.82 61.411)" fill="#7E7D7D"/>
<rect x="88.542" y="60" width="2.91667" height="9.5122" fill="#7E7D7D"/>
</svg>
