<svg width="100%" height="100%" viewBox="0 0 1197 355" fill="none" xmlns="http://www.w3.org/2000/svg">
    <g clip-path="url(#clip0)">
        <path
            d="M1189.06 313.078C1189.06 331.862 1173.85 347.076 1155.05 347.076H41.9533C23.1547 347.076 7.89648 331.862 7.89648 313.078V41.9574C7.89648 23.1832 23.1554 7.91528 41.9533 7.91528H1155.04C1173.85 7.91528 1189.05 23.1832 1189.05 41.9574L1189.06 313.078Z"
            fill="white"></path>
        <path
            d="M1155.05 354.986H41.9531C18.8252 354.986 0 336.194 0 313.079V41.9669C0 18.8342 18.8252 0.015625 41.9531 0.015625H1155.04C1178.14 0.015625 1196.99 18.8342 1196.99 41.9669V313.079C1197.01 336.194 1178.16 354.986 1155.05 354.986V354.986Z"
            fill="#A6A6A6"></path>
        <path
            d="M1189.06 313.078C1189.06 331.862 1173.85 347.076 1155.05 347.076H41.9533C23.1547 347.076 7.89648 331.862 7.89648 313.078V41.9574C7.89648 23.1832 23.1554 7.91528 41.9533 7.91528H1155.04C1173.85 7.91528 1189.05 23.1832 1189.05 41.9574L1189.06 313.078Z"
            fill="black"></path>
        <path
            d="M1155.05 0.0150146H558.84L792.364 354.985H1155.05C1178.15 354.985 1197 336.193 1197 313.051V41.9663C1197.01 18.8336 1178.16 0.0150146 1155.05 0.0150146Z"
            fill="url(#paint0_linear)"></path>
        <path d="M130 60.12V295.307L248.714 177.715L130 60.12Z" fill="url(#paint1_linear)"></path>
        <path d="M280.632 146.057L232.701 118.357L130 59V59.8571L248.741 177.714L280.632 146.057Z"
            fill="url(#paint2_linear)"></path>
        <path d="M130 295.57V296.427L232.702 237.067L280.632 209.367L248.742 177.714L130 295.57Z"
            fill="url(#paint3_linear)"></path>
        <path d="M280.653 146.355L248.714 177.716L280.651 209.072L335.509 177.714L280.653 146.355Z"
            fill="url(#paint4_linear)"></path>
        <path
            d="M882.989 225.949C878.482 225.949 874.37 225.117 870.647 223.456C866.923 221.793 863.794 219.235 861.268 215.786H860.512C861.016 219.827 861.268 223.658 861.268 227.277V255.753H850.793V155.482H859.315L860.764 164.954H861.268C863.964 161.164 867.102 158.431 870.678 156.747C874.255 155.062 878.36 154.22 882.986 154.22C892.164 154.22 899.247 157.358 904.233 163.629C909.221 169.9 911.715 178.7 911.715 190.021C911.715 201.387 909.179 210.214 904.111 216.513C899.04 222.805 892 225.949 882.989 225.949ZM881.473 163.123C874.402 163.123 869.288 165.083 866.132 168.995C862.975 172.91 861.354 179.142 861.268 187.687V190.021C861.268 199.747 862.889 206.703 866.132 210.893C869.374 215.083 874.574 217.172 881.725 217.172C887.706 217.172 892.389 214.755 895.778 209.914C899.164 205.075 900.858 198.403 900.858 189.895C900.858 181.269 899.164 174.645 895.778 170.037C892.391 165.425 887.619 163.123 881.473 163.123ZM935.984 224.685H925.504V126.436H935.984V224.685ZM996.241 224.685L994.156 214.835H993.652C990.199 219.174 986.759 222.112 983.328 223.643C979.898 225.183 975.614 225.949 970.482 225.949C963.621 225.949 958.245 224.181 954.349 220.646C950.453 217.112 948.509 212.083 948.509 205.556C948.509 191.583 959.685 184.258 982.034 183.581L993.782 183.201V178.908C993.782 173.477 992.612 169.466 990.275 166.88C987.942 164.288 984.199 162.995 979.069 162.995C973.3 162.995 966.775 164.763 959.496 168.298L956.275 160.279C959.687 158.427 963.419 156.976 967.485 155.923C971.547 154.871 975.616 154.344 979.701 154.344C987.95 154.344 994.063 156.174 998.043 159.836C1002.02 163.499 1004.01 169.371 1004.01 177.455V224.683H996.241L996.241 224.685ZM972.565 217.3C979.086 217.3 984.21 215.511 987.938 211.934C991.659 208.358 993.526 203.347 993.526 196.903V190.653L983.04 191.092C974.707 191.392 968.703 192.682 965.016 194.981C961.334 197.275 959.492 200.843 959.492 205.684C959.492 209.471 960.637 212.357 962.934 214.331C965.23 216.311 968.436 217.3 972.565 217.3ZM1010.09 155.482H1021.33L1036.48 194.948C1039.81 203.958 1041.87 210.46 1042.67 214.461H1043.18C1043.72 212.31 1044.87 208.641 1046.62 203.437C1048.36 198.237 1054.08 182.256 1063.76 155.482H1075L1045.26 234.285C1042.31 242.073 1038.87 247.598 1034.93 250.866C1031 254.126 1026.17 255.753 1020.45 255.753C1017.25 255.753 1014.09 255.396 1010.97 254.682V246.285C1013.29 246.79 1015.88 247.044 1018.74 247.044C1025.94 247.044 1031.07 243.003 1034.15 234.919L1038 225.071L1010.09 155.482ZM688.839 161.913C692.166 164.667 699.113 170.451 699.113 181.458C699.113 192.163 693.033 197.239 686.954 202.009C685.072 203.888 682.901 205.921 682.901 209.109C682.901 212.287 685.07 214.026 686.668 215.33L691.881 219.375C698.248 224.733 704.032 229.658 704.032 239.649C704.032 253.254 690.86 267 665.97 267C644.98 267 634.853 257.016 634.853 246.298C634.853 241.09 637.447 233.711 645.998 228.639C654.966 223.139 667.131 222.423 673.641 221.978C671.609 219.375 669.299 216.624 669.299 212.144C669.299 209.687 670.025 208.238 670.746 206.493C669.148 206.64 667.558 206.785 666.109 206.785C650.772 206.785 642.088 195.349 642.088 184.064C642.088 177.405 645.131 170.018 651.348 164.669C659.601 157.866 669.441 156.705 677.264 156.705H707.073L697.809 161.915H688.84L688.839 161.913ZM678.56 226.184C677.403 226.033 676.676 226.033 675.235 226.033C673.933 226.033 666.106 226.329 660.035 228.36C656.852 229.509 647.586 232.983 647.586 243.266C647.586 253.538 657.578 260.931 673.066 260.931C686.952 260.931 694.342 254.258 694.342 245.292C694.342 237.895 689.564 234.004 678.56 226.184ZM682.76 198.678C686.084 195.345 686.37 190.718 686.37 188.109C686.37 177.69 680.149 161.479 668.139 161.479C664.372 161.479 660.323 163.358 658.006 166.257C655.549 169.296 654.818 173.2 654.818 176.968C654.818 186.664 660.463 202.733 672.917 202.733C676.535 202.733 680.435 200.996 682.76 198.678ZM597.72 223.868C574.747 223.868 562.464 205.947 562.464 189.758C562.464 170.824 577.923 154.647 599.896 154.647C621.127 154.647 634.423 171.259 634.423 188.75C634.425 205.795 621.28 223.868 597.72 223.868ZM615.781 212.163C619.254 207.534 620.121 201.757 620.121 196.116C620.121 183.394 614.052 159.12 596.132 159.12C591.365 159.12 586.598 161.002 583.131 164.043C577.494 169.094 576.478 175.456 576.478 181.677C576.478 195.973 583.559 219.522 601.048 219.522C606.683 219.522 612.464 216.782 615.781 212.163ZM519.398 223.868C496.421 223.868 484.136 205.947 484.136 189.758C484.136 170.824 499.6 154.647 521.567 154.647C542.805 154.647 556.098 171.259 556.098 188.75C556.101 205.795 542.954 223.868 519.398 223.868ZM537.463 212.163C540.93 207.534 541.799 201.757 541.799 196.116C541.799 183.394 535.726 159.12 517.806 159.12C513.041 159.12 508.27 161.002 504.804 164.043C499.168 169.094 498.158 175.456 498.158 181.677C498.158 195.973 505.235 219.522 522.726 219.522C528.363 219.522 534.14 216.782 537.463 212.163ZM473.098 221.602L452.319 226.397C443.89 227.707 436.338 228.86 428.351 228.86C388.249 228.86 373 199.365 373 176.262C373 148.079 394.643 121.933 431.695 121.933C439.543 121.933 447.091 123.093 453.918 124.983C464.813 128.035 469.897 131.809 473.096 133.991L461.033 145.469L455.951 146.626L459.582 140.812C454.644 136.022 445.629 127.161 428.492 127.161C405.536 127.161 388.245 144.603 388.245 170.026C388.245 197.334 408.006 223.051 439.671 223.051C448.978 223.051 453.762 221.165 458.124 219.417V196.031L436.191 197.193L447.809 190.939H478.61L474.836 194.57C473.812 195.446 473.671 195.74 473.381 196.891C473.23 198.201 473.094 202.418 473.094 203.87V221.602L473.098 221.602Z"
            fill="#F9F9FA"></path>
        <path
            d="M734.726 217.256C729.933 216.82 728.929 215.952 728.929 210.279V128.044C728.959 127.731 728.977 127.409 729.007 127.107C729.592 122.024 731.043 121.152 735.549 118.533H714.779L703.886 123.765H714.987V123.83L714.979 123.778V213.48C714.979 216.381 714.406 216.822 711.062 221.176H736.765L742.137 217.987C739.671 217.687 737.199 217.546 734.726 217.256ZM793.809 218.592C792.228 219.46 790.642 220.474 789.061 221.19C784.295 223.354 779.394 223.933 775.06 223.933C770.457 223.933 763.241 223.635 755.88 218.302C745.651 211.082 741.18 198.673 741.18 187.854C741.18 165.492 759.348 154.526 774.199 154.526C779.392 154.526 784.733 155.822 789.059 158.57C796.262 163.323 798.136 169.527 799.14 172.847L765.262 186.561L754.157 187.426C757.757 205.751 770.157 216.421 783.86 216.421C791.213 216.421 796.55 213.829 801.451 211.38L793.809 218.592ZM780.259 175.586C782.993 174.58 784.435 173.711 784.435 171.692C784.435 165.925 777.95 159.284 770.157 159.284C764.383 159.284 753.576 163.759 753.576 179.34C753.576 181.793 753.866 184.389 754.015 186.995L780.259 175.586ZM807.726 155.514V165.034H806.57V155.514H803.422V154.526H810.872V155.514H807.726ZM820.697 165.034V155.425H820.645L817.715 165.034H816.81L813.855 155.425H813.817V165.034H812.768V154.526H814.566L817.24 163.02H817.278L819.912 154.526H821.736V165.034H820.697Z"
            fill="#F9F9FA"></path>
        <path
            d="M401.613 93.346H394.392C394.392 92.3429 393.707 89.503 392.337 84.8243H381.912C380.499 89.4266 379.791 92.2663 379.791 93.346H373C373 92.7541 374.756 87.893 378.268 78.7648C381.78 69.6365 383.536 64.6076 383.536 63.6831H392.066C392.066 64.5484 393.657 69.5029 396.839 78.5485C400.021 87.5942 401.613 92.5253 401.613 93.346ZM391.188 80.4722C388.615 72.6353 387.33 68.3979 387.33 67.7593H386.969C386.969 68.3512 385.637 72.5886 382.975 80.4722H391.188ZM430.71 93.346H425.137C425.137 92.7225 423.068 89.4351 418.932 83.4817C414.601 77.2081 412.133 72.9196 411.532 70.6102H411.171C411.547 73.9355 411.736 76.943 411.736 79.6325C411.736 83.3843 411.841 87.957 412.051 93.3483H406.5C406.724 88.6399 406.838 83.4692 406.838 77.8339C406.838 72.2901 406.724 67.573 406.5 63.6854H413.2C413.2 64.4913 415.057 67.7045 418.773 73.3228C422.728 79.291 425.001 83.3398 425.587 85.4671H425.925C425.564 82.08 425.383 79.0427 425.383 76.3536C425.383 72.2392 425.278 68.0142 425.068 63.6854H430.71C430.498 67.4521 430.395 72.169 430.395 77.8339C430.393 83.5411 430.498 88.7119 430.71 93.346ZM463.413 77.4882C463.413 81.802 462.044 85.5689 459.306 88.7884C456.567 92.01 452.732 93.6177 447.798 93.6177C445.571 93.6177 442.502 93.5263 438.591 93.3439C438.786 88.7566 438.885 83.5835 438.885 77.8297C438.885 72.3026 438.786 67.5857 438.591 63.681H442.54C443.187 63.681 444.149 63.6577 445.428 63.6131C446.705 63.5686 447.541 63.5452 447.932 63.5452C453.362 63.5452 457.298 64.9132 459.745 67.6471C462.19 70.3809 463.413 73.6598 463.413 77.4882ZM457.254 78.4677C457.254 75.5515 456.412 73.0955 454.727 71.0955C453.042 69.0997 450.469 68.1009 447.01 68.1009C446.363 68.1009 445.476 68.1688 444.346 68.3067C444.495 71.3457 444.571 74.5186 444.571 77.8295C444.571 81.4605 444.647 85.0597 444.796 88.6292C445.761 88.8255 446.743 88.925 447.728 88.9261C450.963 88.9261 453.357 87.9103 454.914 85.8826C456.471 83.855 457.254 81.384 457.254 78.4677ZM493.57 93.346H486.891C485.145 87.9696 483.807 84.6503 482.875 83.3905C481.942 82.1286 480.438 81.4987 478.363 81.4987C477.489 81.4987 476.655 81.5072 475.859 81.522C475.859 85.4268 475.926 89.3672 476.063 93.346H469.79C469.986 88.7585 470.084 83.5856 470.084 77.8316C470.084 72.3047 469.986 67.5877 469.79 63.6831H473.693C474.145 63.6831 475.088 63.6598 476.525 63.6152C477.961 63.5707 479.289 63.5472 480.507 63.5472C487.412 63.5472 490.865 65.9311 490.865 70.7012C490.865 74.4827 488.895 77.1169 484.954 78.6079V78.9494C486.473 79.3735 487.804 80.5719 488.947 82.5358C490.088 84.5019 491.629 88.1053 493.57 93.346ZM485.109 72.385C485.109 69.3627 483.183 67.8507 479.333 67.8507C477.919 67.8507 476.669 67.9567 475.588 68.1688C475.754 70.523 475.835 73.592 475.835 77.3735C476.663 77.4053 477.363 77.4181 477.934 77.4181C482.717 77.4202 485.109 75.7426 485.109 72.385ZM525.914 77.9672C525.914 82.6291 524.5 86.4953 521.671 89.5643C518.842 92.6313 515.344 94.1667 511.179 94.1667C507.207 94.1667 503.882 92.7584 501.206 89.9397C498.527 87.1231 497.189 83.5411 497.189 79.1994C497.189 74.5377 498.603 70.6713 501.433 67.6024C504.26 64.5355 507.757 63 511.924 63C515.897 63 519.22 64.404 521.898 67.2142C524.576 70.0246 525.914 73.6068 525.914 77.9672ZM519.688 78.627C519.688 75.452 518.883 72.8772 517.275 70.9027C515.664 68.9281 513.679 67.9419 511.318 67.9419C509.12 67.9419 507.255 68.9366 505.722 70.926C504.188 72.9154 503.417 75.4288 503.417 78.4679C503.417 81.6259 504.226 84.1965 505.843 86.1797C507.461 88.1627 509.442 89.1532 511.79 89.1532C513.985 89.1532 515.853 88.1543 517.386 86.1562C518.919 84.1604 519.688 81.6491 519.688 78.627ZM538.673 93.346H532.287C532.482 88.6376 532.581 83.4669 532.581 77.8316C532.581 72.2876 532.483 67.5707 532.287 63.6831H538.673C538.477 67.5113 538.379 72.2261 538.379 77.8316C538.379 83.556 538.477 88.7288 538.673 93.346ZM571.378 77.4882C571.378 81.802 570.008 85.5689 567.271 88.7884C564.532 92.01 560.697 93.6177 555.763 93.6177C553.536 93.6177 550.467 93.5263 546.556 93.3439C546.751 88.7566 546.85 83.5835 546.85 77.8297C546.85 72.3026 546.752 67.5857 546.556 63.681H550.505C551.152 63.681 552.114 63.6577 553.393 63.6131C554.671 63.5686 555.506 63.5452 555.897 63.5452C561.327 63.5452 565.263 64.9132 567.71 67.6471C570.155 70.3809 571.378 73.6598 571.378 77.4882ZM565.219 78.4677C565.219 75.5515 564.377 73.0955 562.692 71.0955C561.007 69.0997 558.434 68.1009 554.975 68.1009C554.328 68.1009 553.441 68.1688 552.311 68.3067C552.46 71.3457 552.536 74.5186 552.536 77.8295C552.536 81.4605 552.612 85.0597 552.761 88.6292C553.726 88.8255 554.708 88.925 555.693 88.9261C558.928 88.9261 561.322 87.9103 562.879 85.8826C564.436 83.855 565.219 81.384 565.219 78.4677ZM614.766 93.346H607.545C607.545 92.3429 606.86 89.503 605.488 84.8243H595.063C593.65 89.4266 592.942 92.2663 592.942 93.346H586.153C586.153 92.7541 587.909 87.893 591.421 78.7648C594.933 69.6365 596.689 64.6076 596.689 63.6831H605.22C605.22 64.5484 606.812 69.5029 609.992 78.5485C613.172 87.5942 614.766 92.5253 614.766 93.346ZM604.342 80.4722C601.768 72.6353 600.481 68.3979 600.481 67.7593H600.119C600.119 68.3512 598.79 72.5886 596.128 80.4722H604.342ZM641.086 71.4498C641.086 75.0808 639.75 77.7616 637.08 79.4923C634.41 81.223 631.136 82.0902 627.254 82.0902C626.546 82.0902 626.044 82.0754 625.741 82.0457C625.741 84.9026 625.823 88.6673 625.989 93.346H619.648C619.843 88.9579 619.942 83.7848 619.942 77.8316C619.942 72.364 619.843 67.6471 619.648 63.6831H623.574C624.13 63.6831 625.197 63.6598 626.777 63.6152C628.357 63.5707 629.724 63.5472 630.883 63.5472C633.74 63.5472 636.156 64.2004 638.126 65.5069C640.096 66.8136 641.086 68.7924 641.086 71.4498ZM635.265 72.7033C635.265 69.4539 633.129 67.8273 628.857 67.8273C627.788 67.8273 626.66 67.9417 625.473 68.1688C625.639 71.0405 625.721 74.2897 625.721 77.9207C626.096 77.9525 626.534 77.9653 627.029 77.9653C632.52 77.9672 635.265 76.2134 635.265 72.7033ZM668.149 71.4498C668.149 75.0808 666.813 77.7616 664.146 79.4923C661.476 81.223 658.199 82.0902 654.317 82.0902C653.609 82.0902 653.107 82.0754 652.805 82.0457C652.805 84.9026 652.887 88.6673 653.053 93.346H646.711C646.907 88.9579 647.005 83.7848 647.005 77.8316C647.005 72.364 646.907 67.6471 646.711 63.6831H650.637C651.194 63.6831 652.261 63.6598 653.84 63.6152C655.42 63.5707 656.787 63.5472 657.947 63.5472C660.803 63.5472 663.219 64.2004 665.19 65.5069C667.16 66.8136 668.149 68.7924 668.149 71.4498ZM662.329 72.7033C662.329 69.4539 660.192 67.8273 655.92 67.8273C654.851 67.8273 653.723 67.9417 652.536 68.1688C652.702 71.0405 652.784 74.2897 652.784 77.9207C653.16 77.9525 653.597 77.9653 654.093 77.9653C659.583 77.9672 662.329 76.2134 662.329 72.7033ZM712.397 77.9672C712.397 82.6291 710.983 86.4953 708.154 89.5643C705.324 92.6332 701.827 94.1667 697.662 94.1667C693.69 94.1667 690.364 92.7584 687.688 89.9397C685.012 87.1231 683.672 83.5411 683.672 79.1994C683.672 74.5377 685.086 70.6713 687.915 67.6024C690.745 64.5334 694.242 63 698.407 63C702.379 63 705.705 64.404 708.381 67.2142C711.057 70.0246 712.397 73.6068 712.397 77.9672ZM706.169 78.627C706.169 75.452 705.364 72.8772 703.755 70.9027C702.146 68.9281 700.159 67.9419 697.798 67.9419C695.601 67.9419 693.736 68.9366 692.202 70.926C690.669 72.9154 689.9 75.4288 689.9 78.4679C689.9 81.6259 690.709 84.1965 692.326 86.1797C693.943 88.1627 695.924 89.1532 698.271 89.1532C700.468 89.1532 702.333 88.1542 703.867 86.1564C705.402 84.1604 706.169 81.6491 706.169 78.627ZM742.98 93.346H737.408C737.408 92.7225 735.341 89.4351 731.203 83.4817C726.872 77.2081 724.403 72.9196 723.803 70.6102H723.441C723.817 73.9355 724.007 76.943 724.007 79.6325C724.007 83.3843 724.112 87.957 724.322 93.3483H718.77C718.995 88.6399 719.108 83.4692 719.108 77.8339C719.108 72.2901 718.995 67.573 718.77 63.6854H725.471C725.471 64.4913 727.33 67.7045 731.043 73.3228C735.001 79.291 737.271 83.3398 737.858 85.4671H738.196C737.835 82.08 737.654 79.0427 737.654 76.3536C737.654 72.2392 737.549 68.0142 737.339 63.6854H742.981C742.768 67.4521 742.666 72.169 742.666 77.8339C742.665 83.5411 742.77 88.7119 742.98 93.346Z"
            fill="#F9F9FA"></path>
    </g>
    <defs>
        <linearGradient id="paint0_linear" x1="877.926" y1="355.95" x2="877.926" y2="35.9804"
            gradientUnits="userSpaceOnUse">
            <stop stop-color="#1A1A1A" stop-opacity="0.1"></stop>
            <stop offset="0.123" stop-color="#212121" stop-opacity="0.151"></stop>
            <stop offset="0.308" stop-color="#353535" stop-opacity="0.227"></stop>
            <stop offset="0.532" stop-color="#575757" stop-opacity="0.318"></stop>
            <stop offset="0.783" stop-color="#858585" stop-opacity="0.421"></stop>
            <stop offset="1" stop-color="#B3B3B3" stop-opacity="0.51"></stop>
        </linearGradient>
        <linearGradient id="paint1_linear" x1="189.357" y1="60.1203" x2="189.357" y2="295.308"
            gradientUnits="userSpaceOnUse">
            <stop stop-color="#257CB0"></stop>
            <stop offset="0.286" stop-color="#4A93B5"></stop>
            <stop offset="0.767" stop-color="#78BCBB"></stop>
            <stop offset="1" stop-color="#89CFBD"></stop>
        </linearGradient>
        <linearGradient id="paint2_linear" x1="130.002" y1="118.355" x2="280.634" y2="118.355"
            gradientUnits="userSpaceOnUse">
            <stop stop-color="#52C1AD"></stop>
            <stop offset="1" stop-color="#DEE89A"></stop>
        </linearGradient>
        <linearGradient id="paint3_linear" x1="205.316" y1="177.714" x2="205.316" y2="296.428"
            gradientUnits="userSpaceOnUse">
            <stop stop-color="#EC413D"></stop>
            <stop offset="0.167" stop-color="#DA4452"></stop>
            <stop offset="0.575" stop-color="#B0487A"></stop>
            <stop offset="0.862" stop-color="#954A92"></stop>
            <stop offset="1" stop-color="#8A4A9D"></stop>
        </linearGradient>
        <linearGradient id="paint4_linear" x1="292.113" y1="146.356" x2="292.113" y2="209.07"
            gradientUnits="userSpaceOnUse">
            <stop stop-color="#F58879"></stop>
            <stop offset="0.119" stop-color="#F69079"></stop>
            <stop offset="0.713" stop-color="#FCB877"></stop>
            <stop offset="1" stop-color="#FEC874"></stop>
        </linearGradient>
        <clipPath id="clip0">
            <rect width="1197" height="355" fill="white"></rect>
        </clipPath>
    </defs>
</svg>