<svg width="512" height="512" viewBox="0 0 512 512" fill="none" xmlns="http://www.w3.org/2000/svg">
<g clip-path="url(#clip0)">
<path d="M341.834 480.207V31.793C341.834 14.234 327.6 0 310.042 0H70.2744C52.7154 0 38.4814 14.234 38.4814 31.793V480.208C38.4814 497.766 52.7154 512.001 70.2744 512.001H310.042C327.6 512 341.834 497.766 341.834 480.207V480.207Z" fill="#F9F6F9"/>
<path d="M371.162 0H301.625C319.184 0 333.418 14.234 333.418 31.793V480.208C333.418 497.766 319.184 512.001 301.625 512.001H371.162C388.721 512.001 402.955 497.767 402.955 480.208V31.793C402.954 14.234 388.72 0 371.162 0V0Z" fill="#DDDAEC"/>
<path d="M341.834 42.248H95.4985C87.3425 42.248 80.7305 48.86 80.7305 57.016V420.003C80.7305 428.159 87.3425 434.771 95.4985 434.771H341.834V42.248Z" fill="#C9E0FD"/>
<path d="M345.938 42.248H333.417V434.772H345.938C354.094 434.772 360.706 428.16 360.706 420.004V57.016C360.706 48.86 354.094 42.248 345.938 42.248V42.248Z" fill="#BCD6F9"/>
<path d="M341.834 42.248H95.4985C87.3425 42.248 80.7305 48.86 80.7305 57.016V94.261H341.835V42.248H341.834Z" fill="#9BC4F9"/>
<path d="M345.938 42.248H333.417V94.262H360.706V57.016C360.706 48.86 354.094 42.248 345.938 42.248Z" fill="#7FB2F9"/>
<path d="M237.716 479.034H203.72C199.453 479.034 195.994 475.575 195.994 471.308C195.994 467.041 199.453 463.582 203.72 463.582H237.716C241.983 463.582 245.442 467.041 245.442 471.308C245.442 475.575 241.983 479.034 237.716 479.034Z" fill="#9BC4F9"/>
<path d="M123.623 75.9808C127.89 75.9808 131.349 72.5218 131.349 68.2548C131.349 63.9879 127.89 60.5288 123.623 60.5288C119.357 60.5288 115.897 63.9879 115.897 68.2548C115.897 72.5218 119.357 75.9808 123.623 75.9808Z" fill="#FFC250"/>
<path d="M158.908 75.9808C163.175 75.9808 166.634 72.5218 166.634 68.2548C166.634 63.9879 163.175 60.5288 158.908 60.5288C154.641 60.5288 151.182 63.9879 151.182 68.2548C151.182 72.5218 154.641 75.9808 158.908 75.9808Z" fill="#FFC250"/>
<path d="M194.192 75.9808C198.459 75.9808 201.918 72.5218 201.918 68.2548C201.918 63.9879 198.459 60.5288 194.192 60.5288C189.925 60.5288 186.466 63.9879 186.466 68.2548C186.466 72.5218 189.925 75.9808 194.192 75.9808Z" fill="#FFC250"/>
<path d="M408.88 231.321V145.382C408.88 136.58 403.568 129.026 395.978 125.73H353.225C341.719 125.73 332.391 135.058 332.391 146.564V230.138C332.391 241.645 341.719 250.972 353.225 250.972H395.978C403.568 247.677 408.88 240.122 408.88 231.321V231.321Z" fill="#C9E0FD"/>
<path d="M452.685 125.73H383.577C395.083 125.73 404.411 135.058 404.411 146.564V230.138C404.411 241.645 395.083 250.972 383.577 250.972H452.685C464.191 250.972 473.519 241.644 473.519 230.138V146.564C473.519 135.058 464.191 125.73 452.685 125.73V125.73Z" fill="#BCD6F9"/>
<path opacity="0.678339" fill-rule="evenodd" clip-rule="evenodd" d="M402.011 213.424C402.315 213.254 402.685 213.254 402.989 213.424L432.305 229.866C433.07 230.295 433.977 229.602 433.765 228.751L426.062 197.955C425.967 197.577 426.101 197.178 426.404 196.934L452.045 176.271C452.749 175.703 452.398 174.567 451.497 174.495L417.553 171.787C417.191 171.758 416.873 171.535 416.722 171.204L403.41 141.996C403.054 141.216 401.946 141.216 401.59 141.996L388.278 171.204C388.127 171.535 387.809 171.758 387.447 171.787L353.503 174.495C352.602 174.567 352.251 175.703 352.955 176.271L378.596 196.934C378.899 197.178 379.033 197.577 378.938 197.955L371.235 228.751C371.023 229.602 371.93 230.295 372.695 229.866L402.011 213.424Z" fill="#FAC500"/>
<path d="M265.201 341.315C257.649 339.862 251.314 332.787 251.314 325.097V281.038H189.987V325.097C189.987 332.954 183.577 339.906 176.236 341.315C176.236 341.315 198.78 378.579 220.651 378.68C243.512 378.787 265.201 341.315 265.201 341.315Z" fill="#FFDDCE"/>
<path d="M209.863 308.96C222.074 298.226 228.793 282.469 229.071 266.128L228.871 176.326C228.842 169.257 227.621 162.471 225.353 156.159C223.667 156.011 221.971 155.916 220.263 155.904C188.745 156.394 160.259 180.479 160.403 215.209L160.452 226.852L160.472 231.723L156.374 231.74C150.366 231.766 145.516 236.716 145.542 242.797L145.593 255C145.618 261.081 150.509 265.99 156.517 265.965L160.631 265.947C161.037 281.926 167.735 297.279 179.764 307.674C184.391 311.673 189.922 315.413 196.38 318.253C201.507 315.568 206.002 312.353 209.863 308.96V308.96Z" fill="#FFDDCE"/>
<path d="M295.706 242.157C295.681 236.076 290.79 231.167 284.782 231.193L280.684 231.21L280.615 214.696C280.474 180.931 253.278 157.301 222.546 155.973C225.18 162.546 226.669 169.804 226.702 177.609L226.897 265.433C226.625 281.415 220.054 296.824 208.112 307.322C204.042 310.9 199.261 314.281 193.751 317.021C201.384 320.814 210.418 323.376 220.961 323.45C238.878 323.171 252.411 315.773 262.025 307.322C273.967 296.825 280.538 281.415 280.81 265.433L284.924 265.415C290.932 265.389 295.782 260.439 295.756 254.358L295.706 242.157Z" fill="#FFCBBE"/>
<path d="M294.982 418.969C289.118 391.898 272.472 368.533 249.333 354.058C225.776 367.048 195.165 362.81 176.236 341.315L158.93 344.646C118.179 352.488 87.5899 385.308 81.7559 425.383C83.9079 430.876 89.2429 434.772 95.4989 434.772H286.9C292.825 432.296 296.426 425.635 294.982 418.969V418.969Z" fill="#DD5790"/>
<path d="M282.508 344.646L265.202 341.315L265.172 341.349C259.541 347.733 252.872 352.575 245.671 355.912C268.946 369.42 285.749 392.254 291.516 418.878C293.174 426.533 287.797 434.194 279.983 434.736C279.642 434.76 279.297 434.772 278.949 434.772H345.939C352.195 434.772 357.529 430.876 359.682 425.383C353.848 385.309 323.258 352.488 282.508 344.646V344.646Z" fill="#DA387D"/>
<path d="M218.563 195.091H222.736C224.807 195.1 226.867 194.962 228.912 194.703L228.871 176.326C228.825 165.199 225.845 154.762 220.43 145.797H193.251C167.288 145.797 146.24 166.844 146.24 192.808V223.875C146.24 228.438 149.128 232.502 153.437 234.002L165.017 238.034C169.065 239.443 173.292 236.434 173.285 232.148L173.26 210.241C173.216 199.587 181.712 190.914 192.237 190.868L192.466 190.867C195.687 190.853 198.874 191.354 201.918 192.332C207.311 194.064 212.899 195.115 218.563 195.091V195.091Z" fill="#407093"/>
<path d="M276.731 170.316H276.113C272.694 170.316 269.922 167.544 269.922 164.125C269.922 154.002 261.716 145.795 251.592 145.795H217.215C223.124 154.73 226.653 165.517 226.703 177.609L226.741 194.927C231.033 194.574 235.264 193.653 239.381 192.33C242.425 191.352 245.611 190.852 248.833 190.865L249.062 190.866C259.588 190.911 268.084 199.585 268.039 210.239L268.018 232.148C268.012 236.433 272.239 239.441 276.286 238.032L287.862 234C292.171 232.499 295.059 228.436 295.059 223.873V188.644C295.06 178.523 286.854 170.316 276.731 170.316V170.316Z" fill="#365E7D"/>
</g>
<defs>
<clipPath id="clip0">
<rect width="512" height="512" fill="white"/>
</clipPath>
</defs>
</svg>
