<svg id="Capa_1" enable-background="new 0 0 512 512" height="512" viewBox="0 0 512 512" width="512" xmlns="http://www.w3.org/2000/svg"><g><g><g><g><g><g><g><g><path d="m340.234 480.207v-448.414c0-17.559-14.234-31.793-31.792-31.793h-239.768c-17.558 0-31.792 14.234-31.792 31.793v448.415c0 17.558 14.234 31.793 31.793 31.793h239.768c17.557-.001 31.791-14.235 31.791-31.794z" fill="#f9f6f9"/><path d="m369.562 0h-69.537c17.559 0 31.793 14.234 31.793 31.793v448.415c0 17.558-14.234 31.793-31.793 31.793h69.537c17.559 0 31.793-14.234 31.793-31.793v-448.415c0-17.559-14.234-31.793-31.793-31.793z" fill="#dddaec"/><path d="m340.234 42.248h-246.336c-8.156 0-14.768 6.612-14.768 14.768v362.987c0 8.156 6.612 14.768 14.768 14.768h246.336z" fill="#b7f4d1"/><path d="m340.234 42.248h-246.336c-8.156 0-14.768 6.612-14.768 14.768v362.987c0 8.156 6.612 14.768 14.768 14.768h246.336z" fill="#b7f4d1"/><path d="m344.338 42.248h-12.521v392.524h12.521c8.156 0 14.768-6.612 14.768-14.768v-362.988c.001-8.156-6.611-14.768-14.768-14.768z" fill="#7fe09b"/><path d="m359.107 390.211-200.276-200.276 101.984-101.985c3.017-3.018 3.017-7.909 0-10.928-3.018-3.016-7.909-3.016-10.928 0l-101.984 101.986-68.773-68.774v21.855l63.3 63.3c.003.003.006.007.009.01s.007.006.01.009l82.087 82.087-26.987 26.987c-3.017 3.018-3.017 7.909 0 10.928 1.509 1.508 3.487 2.263 5.464 2.263s3.955-.755 5.464-2.263l26.987-26.987 123.643 123.643z" fill="#77ce8e"/><path d="m340.234 42.248h-246.336c-8.156 0-14.768 6.612-14.768 14.768v37.245h261.105v-52.013z" fill="#9bc4f9"/><path d="m344.339 42.248h-12.521v52.014h27.289v-37.246c0-8.156-6.612-14.768-14.768-14.768z" fill="#7fb2f9"/></g><g><path d="m236.116 479.034h-33.996c-4.267 0-7.726-3.459-7.726-7.726s3.459-7.726 7.726-7.726h33.996c4.267 0 7.726 3.459 7.726 7.726s-3.459 7.726-7.726 7.726z" fill="#9bc4f9"/></g></g><g fill="#ffc250"><circle cx="122.024" cy="68.255" r="7.726"/><circle cx="157.307" cy="68.255" r="7.726"/><circle cx="192.591" cy="68.255" r="7.726"/></g></g></g></g></g></g><g><g><g><path d="m381.195 121.163c-53.748-.115-96.005 45.391-94.254 99.111 2.653 81.435 69.759 129.018 88.96 140.996 3.123 1.948 7.068 1.94 10.191-.009 19.609-12.235 89.026-61.512 89.026-145.969 0-51.918-42.031-94.018-93.923-94.129z" fill="#ffd064"/><path d="m381.195 121.163c-12.221-.026-23.844 2.313-34.495 6.564 34.864 13.788 59.527 47.796 59.527 87.565 0 58.059-32.804 99.492-59.681 123.697 12.228 11.011 23.23 18.461 29.355 22.282 3.123 1.948 7.068 1.94 10.191-.009 19.609-12.235 89.026-61.512 89.026-145.969 0-51.919-42.031-94.019-93.923-94.13z" fill="#ebb044"/><circle cx="380.989" cy="215.292" fill="#fff" r="54.143"/><path d="m435.132 215.292c0-26.976-19.732-49.338-45.548-53.456 10.495 15.184 16.644 33.602 16.644 53.456 0 19.046-3.545 36.29-9.238 51.737 22.09-6.825 38.142-27.406 38.142-51.737z" fill="#f9f6f9"/></g><path d="m174.199 331.637-63.359 24.953c-4.436 1.747-3.976 8.169.663 9.267l25.209 5.963c1.793.424 3.193 1.824 3.617 3.617l5.963 25.209c1.097 4.64 7.52 5.099 9.267.663l24.954-63.358c1.559-3.96-2.355-7.874-6.314-6.314z" fill="#da387d"/></g><path d="" style="fill:none;stroke:#000;stroke-width:15;stroke-linecap:round;stroke-linejoin:round;stroke-miterlimit:10"/></g></g></svg>