<svg width="512" height="512" viewBox="0 0 512 512" fill="none" xmlns="http://www.w3.org/2000/svg">
<g clip-path="url(#clip0)">
<path d="M426.667 64C426.667 28.7147 397.952 0 362.667 0H149.333C114.048 0 85.3335 28.7147 85.3335 64V448C85.3335 483.285 114.048 512 149.333 512H362.667C397.952 512 426.667 483.285 426.667 448V64Z" fill="#607D8B"/>
<path d="M384 448C384 459.776 374.443 469.333 362.667 469.333H149.333C137.557 469.333 128 459.776 128 448V64C128 52.224 137.557 42.6667 149.333 42.6667H160C171.776 42.6667 181.333 52.224 181.333 64C181.333 75.776 190.891 85.3334 202.667 85.3334H309.333C321.109 85.3334 330.667 75.776 330.667 64C330.667 52.224 340.224 42.6667 352 42.6667H362.667C374.443 42.6667 384 52.224 384 64V448Z" fill="white"/>
<rect x="122" y="26" width="134" height="452" fill="#DEDEDE"/>
<path d="M256 0H149.333C114.048 0 85.3335 28.7147 85.3335 64V448C85.3335 483.285 114.048 512 149.333 512H256V469.333H149.333C137.557 469.333 128 459.776 128 448V64C128 52.224 137.557 42.6667 149.333 42.6667H160C171.776 42.6667 181.333 52.224 181.333 64C181.333 75.776 190.891 85.3333 202.667 85.3333H256V0Z" fill="#546D79"/>
<path d="M160 42.6667H149.333C137.557 42.6667 128 52.224 128 64V448C128 459.776 137.557 469.333 149.333 469.333H256V405.333H192C168.469 405.333 149.333 386.197 149.333 362.667V341.333C149.333 329.557 158.891 320 170.667 320C182.443 320 192 329.557 192 341.333V362.667H256V320C244.224 320 234.667 310.443 234.667 298.667V229.333H208C193.792 229.333 186.645 212.075 196.693 202.027L244.693 154.027C247.808 150.891 251.904 149.333 256 149.333V85.3334H202.667C190.891 85.3334 181.333 75.776 181.333 64C181.333 52.224 171.776 42.6667 160 42.6667Z" fill="#DEDEDE"/>
<path d="M350.953 242.748L347.16 246.781H320.842C305.639 246.781 291.195 240.681 281.214 230.044C274.702 223.105 265.513 214.516 256 214.516C246.487 214.516 237.297 218.496 230.787 225.435C220.805 236.071 206.361 242.172 191.158 242.172H158.742V242.607L145.989 246.627V286.367H165.014L166.664 291.06C174.57 287.758 179.919 285.851 183.921 284.833C188.334 283.712 191.106 283.656 193.773 283.656C218.981 283.656 238.585 306.12 234.788 331.359H234.772C233.773 338.197 231.067 344.662 226.945 350.185H215.13V362.497H256L283.964 357.888L282.043 352.566L280.445 350.185C276.322 344.66 273.616 338.193 272.618 331.359H272.602C268.476 303.931 297.868 272.547 328.078 280.224C331.814 281.174 336.725 282.9 343.792 285.811L346.459 289.303L358.021 288.42L362.63 239.867L350.953 242.748Z" fill="#00A4B9"/>
<path d="M288.573 350.185H285.055C280.931 344.66 278.225 338.193 277.228 331.359H277.212C273.415 306.124 293.015 283.656 318.227 283.656C320.894 283.656 323.666 283.712 328.078 284.833C331.814 285.783 336.725 287.509 343.792 290.42L342.349 295.487L362.63 293.029V235.258H345.883L347.161 242.172H320.842C305.639 242.172 291.195 236.071 281.214 225.435C274.703 218.496 265.513 214.516 256 214.516V362.497H288.573V350.185Z" fill="#00BCD4"/>
<path d="M334.734 172.657C312.385 150.308 268.445 138 256 138C191.028 138 138 191.03 138 256C138 287.396 150.308 316.994 172.657 339.343C195.006 361.692 224.604 374 256 374C272.133 374 312.385 361.692 334.734 339.343C380.966 293.111 380.981 218.905 334.734 172.657V172.657ZM256 345.883C206.439 345.883 166.117 305.561 166.117 256C166.117 206.439 206.439 166.117 256 166.117C315.627 166.117 350.492 206.439 350.492 256C350.492 305.561 315 345.883 256 345.883Z" fill="#00A4B9"/>
<path d="M374 256C374 191.027 320.97 138 256 138V166.117C305.561 166.117 345.883 206.439 345.883 256C345.883 305.561 305.561 345.883 256 345.883V374C320.974 374 374 320.97 374 256Z" fill="#00BCD4"/>
<path d="M256 283.656C267.456 283.656 276.742 274.37 276.742 262.914C276.742 251.458 267.456 242.172 256 242.172C244.544 242.172 235.258 251.458 235.258 262.914C235.258 274.37 244.544 283.656 256 283.656Z" fill="#00BCD4"/>
<path d="M276.742 262.914C276.742 251.476 267.438 242.172 256 242.172V283.656C267.438 283.656 276.742 274.352 276.742 262.914Z" fill="#00A4B9"/>
</g>
<defs>
<clipPath id="clip0">
<rect width="512" height="512" fill="white"/>
</clipPath>
</defs>
</svg>
