<svg id="color" enable-background="new 0 0 24 24" height="512" viewBox="0 0 24 24" width="512" xmlns="http://www.w3.org/2000/svg"><path d="m20 3c0-1.654-1.346-3-3-3h-10c-1.654 0-3 1.346-3 3v18c0 1.654 1.346 3 3 3h10c1.654 0 3-1.346 3-3z" fill="#607d8b"/><path d="m18 21c0 .552-.448 1-1 1h-10c-.552 0-1-.448-1-1v-18c0-.552.448-1 1-1h.5c.552 0 1 .448 1 1s.448 1 1 1h5c.552 0 1-.448 1-1s.448-1 1-1h.5c.552 0 1 .448 1 1z" fill="#fff"/><path d="m14.25 11.25h-1.25v-3.25c0-.552-.448-1-1-1s-1 .448-1 1v3.25h-1.25c-.666 0-1.001.809-.53 1.28l2.25 2.25c.146.147.338.22.53.22s.384-.073.53-.22l2.25-2.25c.471-.471.136-1.28-.53-1.28z" fill="#00bcd4"/><path d="m15 19h-6c-1.103 0-2-.897-2-2v-1c0-.552.448-1 1-1s1 .448 1 1v1h6v-1c0-.552.448-1 1-1s1 .448 1 1v1c0 1.103-.897 2-2 2z" fill="#00bcd4"/><path d="m12 0h-5c-1.654 0-3 1.346-3 3v18c0 1.654 1.346 3 3 3h5v-2h-5c-.552 0-1-.448-1-1v-18c0-.552.448-1 1-1h.5c.552 0 1 .448 1 1s.448 1 1 1h2.5z" fill="#546d79"/><path d="m7.5 2h-.5c-.552 0-1 .448-1 1v18c0 .552.448 1 1 1h5v-3h-3c-1.103 0-2-.897-2-2v-1c0-.552.448-1 1-1s1 .448 1 1v1h3v-2c-.192 0-.384-.073-.53-.22l-2.25-2.25c-.471-.471-.136-1.28.53-1.28h1.25v-3.25c0-.552.448-1 1-1v-3h-2.5c-.552 0-1-.448-1-1s-.448-1-1-1z" fill="#dedede"/><g fill="#00a4b9"><path d="m12 7c-.552 0-1 .448-1 1v3.25h-1.25c-.666 0-1.001.809-.53 1.28l2.25 2.25c.146.147.338.22.53.22z"/><path d="m8 15c-.552 0-1 .448-1 1v1c0 1.103.897 2 2 2h3v-2h-3v-1c0-.552-.448-1-1-1z"/></g></svg>