<svg width="100%" height="100%" viewBox="0 0 1197 355" fill="none" xmlns="http://www.w3.org/2000/svg">
    <g clip-path="url(#clip0)">
        <path
            d="M1189.06 313.078C1189.06 331.862 1173.85 347.076 1155.05 347.076H41.9533C23.1547 347.076 7.89648 331.862 7.89648 313.078V41.9574C7.89648 23.1832 23.1554 7.91528 41.9533 7.91528H1155.04C1173.85 7.91528 1189.05 23.1832 1189.05 41.9574L1189.06 313.078Z"
            fill="white"></path>
        <path
            d="M1155.05 354.986H41.9531C18.8252 354.986 0 336.194 0 313.079V41.9669C0 18.8342 18.8252 0.015625 41.9531 0.015625H1155.04C1178.14 0.015625 1196.99 18.8342 1196.99 41.9669V313.079C1197.01 336.194 1178.16 354.986 1155.05 354.986V354.986Z"
            fill="#A6A6A6"></path>
        <path
            d="M1189.06 313.078C1189.06 331.862 1173.85 347.076 1155.05 347.076H41.9533C23.1547 347.076 7.89648 331.862 7.89648 313.078V41.9574C7.89648 23.1832 23.1554 7.91528 41.9533 7.91528H1155.04C1173.85 7.91528 1189.05 23.1832 1189.05 41.9574L1189.06 313.078Z"
            fill="black"></path>
        <path
            d="M267.279 175.631C267.022 147.022 290.691 133.103 291.773 132.455C278.369 112.9 257.592 110.228 250.291 110.015C232.841 108.177 215.914 120.463 207.025 120.463C197.958 120.463 184.27 110.193 169.517 110.494C150.532 110.787 132.772 121.785 123.03 138.864C102.928 173.687 117.92 224.862 137.181 253.01C146.814 266.804 158.073 282.187 172.808 281.646C187.224 281.06 192.609 272.458 210.006 272.458C227.242 272.458 232.3 281.646 247.327 281.3C262.8 281.06 272.54 267.452 281.838 253.542C292.972 237.751 297.442 222.181 297.62 221.382C297.265 221.258 267.581 209.913 267.279 175.631V175.631ZM238.891 91.4982C246.644 81.796 251.949 68.5963 250.477 55.2014C239.254 55.6985 225.22 62.9685 217.137 72.4577C209.987 80.8195 203.599 94.5252 205.249 107.414C217.856 108.355 230.8 101.05 238.891 91.4982V91.4982Z"
            fill="white"></path>
        <path
            d="M1155.05 0.0151367H558.84L792.364 354.985H1155.05C1178.15 354.985 1197 336.193 1197 313.052V41.9664C1197.01 18.8337 1178.16 0.0151367 1155.05 0.0151367Z"
            fill="url(#paint0_linear)"></path>
        <path
            d="M476.087 279.666H455.94L444.904 244.967H406.543L396.03 279.666H376.416L414.43 161.535H437.904L476.087 279.666ZM441.578 230.41L431.597 199.563C430.542 196.412 428.554 188.991 425.644 177.309H425.29C424.119 182.333 422.247 189.754 419.683 199.563L409.871 230.41H441.578ZM573.656 236.028C573.656 250.515 569.726 261.966 561.856 270.373C554.813 277.855 546.057 281.593 535.614 281.593C524.339 281.593 516.23 277.571 511.307 269.512V314.206H492.393V222.483C492.393 213.383 492.154 204.055 491.692 194.486H508.326L509.382 207.987H509.736C516.044 197.814 525.616 192.727 538.462 192.727C548.505 192.727 556.888 196.695 563.595 204.64C570.293 212.603 573.656 223.06 573.656 236.028V236.028ZM554.386 236.721C554.386 228.43 552.523 221.595 548.78 216.207C544.69 210.606 539.198 207.801 532.314 207.801C527.648 207.801 523.407 209.363 519.619 212.443C515.822 215.55 513.338 219.607 512.177 224.631C511.591 226.974 511.298 228.883 511.298 230.393V244.603C511.298 250.79 513.197 256.02 516.994 260.298C520.791 264.559 525.723 266.697 531.791 266.697C538.916 266.697 544.461 263.938 548.425 258.46C552.399 252.965 554.386 245.722 554.386 236.721V236.721ZM671.569 236.028C671.569 250.515 667.639 261.966 659.77 270.373C652.718 277.855 643.97 281.593 633.52 281.593C622.244 281.593 614.136 277.571 609.212 269.512V314.206H590.298V222.483C590.298 213.383 590.058 204.055 589.597 194.486H606.231L607.287 207.987H607.642C613.94 197.814 623.513 192.727 636.367 192.727C646.4 192.727 654.784 196.695 661.509 204.64C668.199 212.603 671.569 223.06 671.569 236.028ZM652.292 236.721C652.292 228.43 650.421 221.595 646.676 216.207C642.586 210.606 637.113 207.801 630.228 207.801C625.562 207.801 621.321 209.363 617.516 212.443C613.719 215.55 611.244 219.607 610.081 224.631C609.505 226.974 609.194 228.883 609.194 230.393V244.603C609.194 250.79 611.102 256.02 614.881 260.298C618.678 264.55 623.61 266.697 629.696 266.697C636.828 266.697 642.373 263.938 646.33 258.46C650.305 252.965 652.292 245.722 652.292 236.721V236.721ZM781.043 246.53C781.043 256.587 777.53 264.762 770.549 271.074C762.866 277.962 752.141 281.415 738.389 281.415C725.685 281.415 715.501 278.965 707.818 274.056L712.192 258.282C720.487 263.2 729.598 265.65 739.516 265.65C746.649 265.65 752.193 264.034 756.15 260.83C760.115 257.617 762.12 253.32 762.12 247.959C762.12 243.157 760.461 239.135 757.206 235.861C753.932 232.594 748.52 229.549 740.918 226.753C720.247 219.039 709.903 207.757 709.903 192.915C709.903 183.222 713.558 175.286 720.851 169.081C728.143 162.885 737.813 159.788 749.843 159.788C760.586 159.788 769.538 161.661 776.644 165.398L771.897 180.825C765.208 177.203 757.658 175.393 749.212 175.393C742.542 175.393 737.307 177.035 733.563 180.301C730.414 183.222 728.817 186.782 728.817 191.007C728.817 195.668 730.636 199.538 734.255 202.574C737.396 205.369 743.127 208.415 751.413 211.681C761.579 215.782 769.048 220.558 773.831 226.044C778.648 231.528 781.043 238.372 781.043 246.53V246.53ZM843.739 208.688H822.89V250.045C822.89 260.564 826.563 265.81 833.927 265.81C837.306 265.81 840.11 265.525 842.328 264.931L842.851 279.302C839.125 280.697 834.219 281.397 828.142 281.397C820.672 281.397 814.835 279.116 810.621 274.553C806.424 269.991 804.314 262.348 804.314 251.589V208.653H791.893V194.45H804.314V178.854L822.89 173.244V194.45H843.739V208.688V208.688ZM937.615 236.375C937.615 249.467 933.873 260.217 926.402 268.624C918.586 277.278 908.189 281.593 895.228 281.593C882.719 281.593 872.774 277.447 865.357 269.165C857.941 260.865 854.233 250.409 854.233 237.795C854.233 224.595 858.065 213.783 865.703 205.377C873.36 196.962 883.669 192.755 896.629 192.755C909.12 192.755 919.155 196.909 926.748 205.2C934.006 213.242 937.615 223.628 937.615 236.375V236.375ZM918.01 236.81C918.01 229.006 916.325 222.313 912.944 216.712C908.978 209.948 903.301 206.567 895.946 206.567C888.37 206.567 882.56 209.948 878.603 216.712C875.214 222.313 873.528 229.122 873.528 237.164C873.528 244.976 875.214 251.686 878.603 257.27C882.692 264.034 888.397 267.416 895.787 267.416C903.017 267.416 908.686 263.963 912.784 257.102C916.263 251.367 918.01 244.63 918.01 236.81V236.81ZM999.122 211.129C997.25 210.782 995.245 210.605 993.16 210.605C986.507 210.605 981.361 213.109 977.743 218.15C974.602 222.588 973.022 228.199 973.022 234.971V279.666H954.108V221.311C954.108 211.502 953.922 202.554 953.558 194.494H970.033L970.725 210.791H971.249C973.254 205.191 976.394 200.672 980.706 197.29C984.92 194.246 989.47 192.727 994.377 192.727C996.124 192.727 997.703 192.852 999.105 193.074L999.122 211.129V211.129ZM1083.71 233.046C1083.71 236.437 1083.49 239.294 1083.02 241.63H1026.28C1026.49 250.045 1029.24 256.489 1034.51 260.928C1039.29 264.887 1045.47 266.875 1053.07 266.875C1061.47 266.875 1069.13 265.543 1076.03 262.854L1078.99 275.982C1070.94 279.498 1061.43 281.246 1050.45 281.246C1037.25 281.246 1026.89 277.358 1019.35 269.6C1011.83 261.833 1008.06 251.394 1008.06 238.319C1008.06 225.482 1011.56 214.787 1018.58 206.256C1025.92 197.149 1035.85 192.594 1048.34 192.594C1060.61 192.594 1069.9 197.148 1076.21 206.256C1081.2 213.473 1083.71 222.421 1083.71 233.046V233.046ZM1065.68 228.137C1065.81 222.518 1064.57 217.68 1062 213.588C1058.73 208.315 1053.69 205.688 1046.94 205.688C1040.76 205.688 1035.72 208.253 1031.88 213.402C1028.73 217.494 1026.86 222.412 1026.29 228.119L1065.68 228.137Z"
            fill="white"></path>
        <path
            d="M432.458 119.256H422.548L417.127 102.204H398.275L393.103 119.256H383.46L402.143 61.1933H413.676L432.458 119.256ZM415.495 95.049L410.589 79.8876C410.074 78.3342 409.125 74.7214 407.661 68.9515H407.484C406.881 71.4459 406.02 75.0675 404.725 79.8876L399.908 95.049H415.495ZM479.174 77.3932L463.33 119.256H454.289L438.96 77.3932H448.949L456.099 99.5317C457.306 103.233 458.335 106.766 459.107 110.122H459.364C460.057 107.112 461.085 103.579 462.372 99.5317L469.433 77.3932H479.174V77.3932ZM512.903 119.256L512.211 114.435H511.953C509.115 118.314 504.98 120.205 499.729 120.205C492.241 120.205 486.9 114.95 486.9 107.884C486.9 97.5515 495.852 92.2077 511.35 92.2077V91.4354C511.35 85.923 508.423 83.1623 502.656 83.1623C498.521 83.1623 494.902 84.2009 491.727 86.2692L489.836 80.1531C493.713 77.7387 498.531 76.5315 504.217 76.5315C515.146 76.5315 520.664 82.3013 520.664 93.8499V109.269C520.664 113.494 520.842 116.769 521.268 119.264L512.903 119.256V119.256ZM511.608 98.4044C501.274 98.4044 496.11 100.908 496.11 106.846C496.11 111.24 498.78 113.388 502.479 113.388C507.216 113.388 511.608 109.775 511.608 104.867V98.4044ZM541.372 70.496C538.276 70.496 535.863 68.0816 535.863 64.8949C535.863 61.7081 538.356 59.3824 541.549 59.3824C544.734 59.3824 547.316 61.7081 547.228 64.8949C547.228 68.2591 544.824 70.496 541.372 70.496ZM546.198 119.256H536.901V77.3932H546.198V119.256ZM572.014 119.256H562.717V58.1841H572.014V119.256ZM611.527 119.256L610.835 114.435H610.578C607.739 118.314 603.605 120.205 598.353 120.205C590.866 120.205 585.525 114.95 585.525 107.884C585.525 97.5515 594.476 92.2077 609.974 92.2077V91.4354C609.974 85.923 607.047 83.1623 601.28 83.1623C597.146 83.1623 593.526 84.2009 590.35 86.2692L588.453 80.1443C592.33 77.7298 597.147 76.5226 602.833 76.5226C613.763 76.5226 619.28 82.2924 619.28 93.841V109.26C619.28 113.485 619.467 116.761 619.875 119.255H611.527V119.256ZM610.232 98.4044C599.897 98.4044 594.734 100.908 594.734 106.846C594.734 111.24 597.403 113.388 601.103 113.388C605.84 113.388 610.232 109.775 610.232 104.867V98.4044V98.4044ZM656.95 120.206C651.015 120.206 646.632 117.702 643.793 112.793H643.607L643.074 119.256H635.152C635.409 115.9 635.498 112.101 635.498 107.973V58.1841H644.804V83.5182H644.982C647.74 78.8668 652.204 76.5411 658.324 76.5411C668.402 76.5411 675.464 85.1603 675.464 97.7297C675.464 110.725 667.622 120.206 656.95 120.206V120.206ZM655.06 83.8466C649.71 83.8466 644.814 88.498 644.814 94.9602V102.283C644.814 108.053 649.213 112.793 654.901 112.793C661.865 112.793 666.008 107.112 666.008 98.067C665.998 89.6253 661.687 83.8466 655.06 83.8466V83.8466ZM698.503 119.256H689.215V58.1841H698.503V119.256ZM749.116 100.561H721.206C721.392 108.488 726.626 112.962 734.379 112.962C738.513 112.962 742.302 112.27 745.655 110.983L747.101 117.445C743.144 119.167 738.496 120.028 733.075 120.028C719.981 120.028 712.236 111.755 712.236 98.9281C712.236 86.0924 720.168 76.4434 732.028 76.4434C742.702 76.4434 749.425 84.3703 749.425 96.345C749.461 97.9783 749.381 99.4429 749.116 100.561V100.561ZM740.589 93.9305C740.589 87.4683 737.315 82.9057 731.372 82.9057C726.031 82.9057 721.826 87.557 721.205 93.9305H740.589V93.9305ZM805.466 120.206C793.241 120.206 785.319 111.071 785.319 98.6707C785.319 85.7462 793.41 76.5322 806.167 76.5322C818.205 76.5322 826.314 85.2314 826.314 97.9872C826.315 111.071 817.957 120.206 805.466 120.206ZM805.821 83.3317C799.105 83.3317 794.804 89.6164 794.804 98.4044C794.804 107.024 799.195 113.308 805.733 113.308C812.271 113.308 816.653 106.589 816.653 98.2268C816.662 89.7052 812.359 83.3317 805.821 83.3317V83.3317ZM876.296 119.256H867.008V95.2176C867.008 87.8145 864.169 84.104 858.572 84.104C853.062 84.104 849.265 88.8442 849.265 94.3566V119.256H839.977V89.359C839.977 85.6574 839.879 81.6896 839.631 77.3844H847.811L848.245 83.8466H848.503C850.986 79.3727 856.079 76.5233 861.756 76.5233C870.53 76.5233 876.297 83.243 876.297 94.1791V119.256H876.296V119.256ZM937.128 84.3703H926.899V104.698C926.899 109.873 928.701 112.456 932.31 112.456C933.952 112.456 935.336 112.279 936.445 112.021L936.703 119.087C934.892 119.78 932.47 120.126 929.48 120.126C922.153 120.126 917.779 116.078 917.779 105.479V84.3703H911.675V77.3932H917.779V69.7238L926.899 66.9631V77.3844H937.128V84.3703ZM986.365 119.256H977.058V95.3952C977.058 87.9032 974.219 84.1129 968.622 84.1129C963.804 84.1129 959.334 87.3884 959.334 94.0193V119.256H950.027V58.1841H959.334V83.3317H959.511C962.439 78.7691 966.662 76.5233 972.082 76.5233C980.945 76.5233 986.365 83.4116 986.365 94.3566V119.256V119.256ZM1033.87 100.561H1005.97C1006.15 108.488 1011.38 112.962 1019.14 112.962C1023.28 112.962 1027.06 112.27 1030.41 110.983L1031.87 117.445C1027.91 119.167 1023.25 120.028 1017.83 120.028C1004.74 120.028 996.994 111.755 996.994 98.9281C996.994 86.0924 1004.93 76.4434 1016.79 76.4434C1027.46 76.4434 1034.18 84.3703 1034.18 96.345C1034.22 97.9783 1034.13 99.4429 1033.87 100.561V100.561ZM1025.35 93.9305C1025.35 87.4683 1022.08 82.9057 1016.14 82.9057C1010.79 82.9057 1006.58 87.557 1005.97 93.9305H1025.35V93.9305Z"
            fill="white"></path>
    </g>
    <defs>
        <linearGradient id="paint0_linear" x1="877.926" y1="355.95" x2="877.926" y2="35.9805"
            gradientUnits="userSpaceOnUse">
            <stop stop-color="#1A1A1A" stop-opacity="0.1"></stop>
            <stop offset="0.123" stop-color="#212121" stop-opacity="0.151"></stop>
            <stop offset="0.308" stop-color="#353535" stop-opacity="0.227"></stop>
            <stop offset="0.532" stop-color="#575757" stop-opacity="0.318"></stop>
            <stop offset="0.783" stop-color="#858585" stop-opacity="0.421"></stop>
            <stop offset="1" stop-color="#B3B3B3" stop-opacity="0.51"></stop>
        </linearGradient>
        <clipPath id="clip0">
            <rect width="1197" height="355" fill="white"></rect>
        </clipPath>
    </defs>
</svg>