<svg id="Capa_1" enable-background="new 0 0 512 512" height="512" viewBox="0 0 512 512" width="512" xmlns="http://www.w3.org/2000/svg"><g><g><g><g><g><g><g><g><g><path d="m470.284 461.246h-271.062c-15.818 0-28.641-12.823-28.641-28.641v-403.964c0-15.818 12.823-28.641 28.641-28.641h271.061c15.818 0 28.641 12.823 28.641 28.641v403.964c.001 15.818-12.822 28.641-28.64 28.641z" fill="#f9f6f9"/><path d="m470.284 0h-106.977c15.818 0 28.641 12.823 28.641 28.641v403.964c0 15.818-12.823 28.641-28.641 28.641h106.977c15.818 0 28.641-12.823 28.641-28.641v-403.964c0-15.818-12.823-28.641-28.641-28.641z" fill="#dddaec"/><path d="m208.642 378.369v-327.005c0-7.348 5.957-13.304 13.304-13.304h225.614c7.348 0 13.304 5.957 13.304 13.304v327.005c0 7.348-5.957 13.304-13.304 13.304h-225.614c-7.348 0-13.304-5.956-13.304-13.304z" fill="#c9e0fd"/><path d="m447.56 38.06h-225.614c-7.348 0-13.304 5.957-13.304 13.304v33.553h252.223v-33.553c-.001-7.348-5.957-13.304-13.305-13.304z" fill="#9bc4f9"/><path d="m447.56 38.06h-55.612v353.613h55.612c7.348 0 13.304-5.956 13.304-13.304v-327.005c.001-7.347-5.956-13.304-13.304-13.304z" fill="#bcd6f9"/><path d="m447.56 38.06h-55.612v46.858h68.917v-33.554c-.001-7.347-5.957-13.304-13.305-13.304z" fill="#7fb2f9"/></g><g><path d="m350.066 432.316h-30.626c-4.269 0-7.729-3.461-7.729-7.729s3.461-7.729 7.729-7.729h30.626c4.269 0 7.729 3.461 7.729 7.729s-3.46 7.729-7.729 7.729z" fill="#9bc4f9"/></g></g><g fill="#ffc250"><circle cx="247.283" cy="61.489" r="6.96"/><circle cx="279.069" cy="61.489" r="6.96"/><circle cx="310.855" cy="61.489" r="6.96"/></g></g></g></g></g></g></g><g><g><g><g><path d="m284.849 369.997c-8.696-9.156-23.171-9.297-32.045-.423l-10.08-41.713 16.045-16.045c8.874-8.874 8.733-23.349-.423-32.045-8.853-8.408-22.933-7.865-31.566.768l-15.264 15.264c8.874-8.874 8.733-23.349-.423-32.045-8.853-8.408-22.933-7.865-31.566.768l-8.784 8.784c8.874-8.874 8.733-23.349-.423-32.045-8.853-8.408-22.932-7.865-31.566.768l-51.293 51.293c-8.591 8.591-15.347 18.84-19.857 30.122l-18.362 45.29c-3.613 8.91-8.977 17.005-15.776 23.804l-6.545 6.545 97.597 97.597c13.015-11.368 29.067-18.775 46.258-21.238l16.442-2.355c19.193-2.749 36.977-11.646 50.688-25.356l46.174-46.174c8.634-8.631 9.177-22.711.769-31.564z" fill="#ffddce"/></g><path d="m367.04 235.179c-8.735-8.735-22.897-8.735-31.633 0l-76.638 76.639c8.874-8.874 8.733-23.349-.423-32.045-8.853-8.408-22.933-7.865-31.566.768l-15.264 15.264c8.874-8.874 8.733-23.349-.423-32.045-8.853-8.408-22.933-7.865-31.566.768l-8.784 8.784c8.874-8.874 8.733-23.349-.423-32.045-8.853-8.408-22.933-7.865-31.566.768l-51.293 51.293c-8.591 8.591-15.347 18.839-19.857 30.122l-18.362 45.29c-3.613 8.911-8.977 17.005-15.776 23.804l-6.545 6.545 97.597 97.598c13.015-11.368 29.067-18.775 46.258-21.238l16.442-2.355c19.193-2.749 36.977-11.646 50.687-25.356l46.174-46.174c8.634-8.633 9.177-22.713.768-31.566-3.893-4.099-8.945-6.377-14.133-6.862l96.324-96.324c8.737-8.736 8.737-22.898.002-31.633z" fill="#ffddce"/><g><path d="m367.04 235.179c-8.735-8.735-22.897-8.735-31.633 0l-76.638 76.639c8.874-8.874 8.733-23.349-.423-32.045-.275-.261-.569-.487-.853-.731l-21.963 21.963c-5.495 5.495-5.361 14.361.163 19.826.089.088.178.177.266.267 8.509 8.7 8.037 23.234-.568 31.838l-46.143 46.143c-13.71 13.71-31.494 22.606-50.687 25.355l-16.442 2.355c-17.191 2.463-33.243 9.87-46.258 21.238l48.658 48.658c13.015-11.368 29.067-18.775 46.258-21.238l16.442-2.355c19.193-2.749 36.977-11.646 50.687-25.356l46.174-46.174c8.634-8.633 9.177-22.713.768-31.566-3.893-4.099-8.945-6.377-14.133-6.862l96.324-96.324c8.736-8.734 8.736-22.896.001-31.631z" fill="#ffcbbe"/></g></g><path d="m17.173 404.635 103.267 103.267c5.463 5.463 14.321 5.463 19.785 0l10.368-10.368c5.463-5.463 5.463-14.321 0-19.785l-103.267-103.267c-5.463-5.463-14.321-5.463-19.785 0l-10.368 10.368c-5.463 5.464-5.463 14.322 0 19.785z" fill="#dd5790"/><path d="m150.593 477.75-48.437-48.437c5.463 5.463 5.463 14.321 0 19.785l-10.368 10.368c-5.463 5.463-14.321 5.463-19.785 0l48.437 48.437c5.463 5.463 14.321 5.463 19.785 0l10.368-10.368c5.464-5.464 5.464-14.322 0-19.785z" fill="#da387d"/></g></g></g></svg>