<svg width="44" height="45" viewBox="0 0 44 45" fill="none" xmlns="http://www.w3.org/2000/svg">
<path d="M0 5.31018H10.6207V17.4484H0V5.31018Z" fill="#4398D1"/>
<path d="M28.7333 17.9224L23.5172 12.8965H20.4828L15.2664 17.9224C12.3374 20.6687 10.6593 24.4936 10.6207 28.5082C10.6207 34.1309 15.7154 38.6895 22 38.6895C28.2843 38.6895 33.3793 34.1309 33.3793 28.5082C33.3407 24.4936 31.6626 20.6687 28.7333 17.9224Z" fill="#88B337"/>
<path d="M30.1785 19.5427C30.288 20.3106 30.3431 21.0851 30.3449 21.8603C30.3449 28.6409 24.2 34.1379 16.6227 34.1379C15.0654 34.1364 13.5171 33.8936 12.0331 33.4197C14.2264 36.7756 17.9915 38.767 22 38.6895C28.2843 38.6895 33.3793 34.1309 33.3793 28.5082C33.3549 25.2438 32.2269 22.0842 30.1785 19.5427Z" fill="#80A834"/>
<path d="M29.2067 5.31021H21.2414V1.51721H17.4481L13.6551 5.31021H10.6207V17.4484H27.3102C28.1487 17.4484 28.8274 16.7694 28.8274 15.9309V9.10351H29.2067C30.2546 9.10351 31.1035 8.25458 31.1035 7.20701C31.1035 6.15914 30.2546 5.31021 29.2067 5.31021Z" fill="#FFB782"/>
<path d="M6.82739 13.6551H8.34488V15.1723H6.82739V13.6551Z" fill="#3582BD"/>
<path d="M27.4188 33.9407L27.0575 34.1379H21.2414C19.9844 34.1379 18.9656 35.1567 18.9656 36.4137C18.9656 37.6707 19.9844 38.6895 21.2414 38.6895H19.7242L11.8753 35.0946C10.808 34.6075 9.54784 35.0771 9.06079 36.1445C9.04714 36.1732 9.03523 36.2028 9.02304 36.2325C8.63241 37.2095 9.00852 38.3262 9.91059 38.8678L18.6429 44.1069C19.3501 44.5326 20.1595 44.7577 20.9849 44.7586H37.1723V34.8965C34.4254 32.607 30.5578 32.2286 27.4188 33.9407Z" fill="#FFB782"/>
<path d="M37.1723 34.8965H44V44.7586H37.1723V34.8965Z" fill="#DE4C3C"/>
<path d="M39.4481 40.9656H40.9653V42.4828H39.4481V40.9656Z" fill="#7A4930"/>
<path d="M25.4137 5.31021L27.3102 0.758606H16.6895L18.586 5.31021H25.4137Z" fill="#88B337"/>
<path d="M36.4137 18.9656C36.1544 17.4095 34.9351 16.1905 33.3793 15.9309C34.9351 15.6715 36.1544 14.4523 36.4137 12.8965C36.6731 14.4523 37.8923 15.6715 39.4481 15.9309C37.8923 16.1905 36.6731 17.4095 36.4137 18.9656Z" fill="#FDB62F"/>
<path d="M37.4697 31.3431L36.0283 30.8636C36.479 29.514 36.5342 28.0644 36.1892 26.6843L36.0123 25.9765L37.4839 25.6094L37.6608 26.3163C38.0773 27.9764 38.0105 29.7196 37.4697 31.3431Z" fill="#DADDDF"/>
<path d="M11.3793 3.0344H9.86209C9.86209 1.35863 11.2207 0 12.8965 0V1.5172C12.0583 1.5172 11.3793 2.19622 11.3793 3.0344Z" fill="#DADDDF"/>
<path d="M27.3102 39.4484H21.2414C20.8226 39.4484 20.4828 39.1083 20.4828 38.6895C20.4828 38.271 20.8226 37.9309 21.2414 37.9309H27.3102C27.729 37.9309 28.0688 38.271 28.0688 38.6895C28.0688 39.1083 27.729 39.4484 27.3102 39.4484Z" fill="#F2A46F"/>
<path d="M27.3102 17.4484C28.1487 17.4484 28.8274 16.7694 28.8274 15.9309V9.70264C25.0065 13.6955 19.6574 16.0941 15.6117 17.4484H27.3102Z" fill="#F5AB76"/>
<path d="M23.524 23.44V23.678H25.33V24.602H23.454C23.37 25.246 23.1833 25.75 22.894 26.114C22.614 26.478 22.2033 26.7393 21.662 26.898C21.13 27.0567 20.4207 27.136 19.534 27.136V28.242C19.534 29.502 20.0847 30.132 21.186 30.132C22.2687 30.132 22.81 29.5253 22.81 28.312H23.986C23.9767 29.2453 23.7293 29.95 23.244 30.426C22.7587 30.902 22.068 31.14 21.172 31.14C20.248 31.14 19.5433 30.8833 19.058 30.37C18.582 29.8567 18.344 29.138 18.344 28.214V26.24C19.408 26.24 20.192 26.2073 20.696 26.142C21.2093 26.0673 21.5827 25.918 21.816 25.694C22.0493 25.4607 22.1987 25.0967 22.264 24.602H17.714V23.678H22.32V23.426V22.166H17.714V21.228H25.33V22.166H23.524V23.44Z" fill="white"/>
</svg>
