<svg width="50" height="50" viewBox="0 0 50 50" fill="none" xmlns="http://www.w3.org/2000/svg">
<path d="M42.6777 7.32234C37.9559 2.60053 31.6778 0 25 0C18.3222 0 12.0441 2.60053 7.32234 7.32234C2.60053 12.0441 0 18.3223 0 25C0 31.6777 2.60053 37.9559 7.32234 42.6777C12.0441 47.3995 18.3222 50 25 50C31.6778 50 37.9559 47.3995 42.6777 42.6777C47.3995 37.9559 50 31.6777 50 25C50 18.3223 47.3995 12.0443 42.6777 7.32234Z" fill="#164564"/>
<path d="M38.4937 11.2903C34.8606 7.65718 30.0301 5.65625 24.892 5.65625C19.7539 5.65625 14.9234 7.65718 11.2903 11.2903C7.65718 14.9234 5.65625 19.754 5.65625 24.892C5.65625 30.03 7.65718 34.8606 11.2903 38.4937C14.9234 42.1268 19.7539 44.1278 24.892 44.1278C30.0301 44.1278 34.8606 42.1268 38.4937 38.4937C42.1268 34.8606 44.1278 30.03 44.1278 24.892C44.1278 19.754 42.1268 14.9235 38.4937 11.2903Z" fill="white"/>
<path d="M20.3051 29.242C19.5832 28.5201 19.5832 27.3497 20.3051 26.6279L29.0569 17.8761C32.0044 14.9285 35.1931 12.1783 38.5446 9.6924C38.9182 9.41528 39.4377 9.4517 39.7667 9.78054C40.0955 10.1094 40.1319 10.629 39.8548 11.0026C37.3688 14.3541 34.6186 17.5427 31.671 20.4903L22.9192 29.2421C22.1973 29.9638 21.0269 29.9638 20.3051 29.242V29.242Z" fill="#29D0DF"/>
<path d="M40.2927 24.5542C40.2927 24.5703 40.2921 24.5861 40.292 24.6021H44.5657C44.5658 24.586 44.5663 24.5702 44.5663 24.5542C44.5663 19.5102 42.6615 14.9115 39.5329 11.4365C38.6624 12.5944 37.7607 13.7323 36.8301 14.8469C38.9939 17.4912 40.2927 20.8709 40.2927 24.5542Z" fill="#FD7E42"/>
<path d="M34.7079 12.7159C35.8218 11.786 36.959 10.885 38.1162 10.0152C34.636 6.86232 30.019 4.94141 24.9531 4.94141V9.21505C28.6584 9.21505 32.0567 10.5288 34.7079 12.7159Z" fill="#F9C301"/>
<path d="M24.9524 9.21505V4.94141C19.5243 4.94141 14.6116 7.14676 11.0605 10.71L14.0824 13.7319C16.8602 10.9421 20.7045 9.21505 24.9524 9.21505Z" fill="#FCE25C"/>
<path d="M9.61349 24.5539C9.61349 20.3303 11.3208 16.5057 14.0825 13.7318L11.0606 10.71C7.52546 14.2572 5.33984 19.1502 5.33984 24.5539C5.33984 24.5699 5.3404 24.5858 5.34049 24.6017H9.61414C9.61405 24.5858 9.61349 24.5699 9.61349 24.5539V24.5539Z" fill="#7FD061"/>
<path d="M24.9524 27.7769C26.7092 27.7769 28.1333 26.3527 28.1333 24.596C28.1333 22.8392 26.7092 21.415 24.9524 21.415C23.1956 21.415 21.7715 22.8392 21.7715 24.596C21.7715 26.3527 23.1956 27.7769 24.9524 27.7769Z" fill="#FBD307"/>
<path d="M29.47 40.2095H20.4329C20.0374 40.2095 19.7168 39.8889 19.7168 39.4934C19.7168 39.0979 20.0374 38.7773 20.4329 38.7773H29.47C29.8656 38.7773 30.1861 39.0979 30.1861 39.4934C30.1861 39.8889 29.8655 40.2095 29.47 40.2095Z" fill="#FCB143"/>
<path d="M29.47 36.6782H20.4329C20.0374 36.6782 19.7168 36.3576 19.7168 35.9622C19.7168 35.5667 20.0374 35.2461 20.4329 35.2461H29.47C29.8656 35.2461 30.1861 35.5667 30.1861 35.9622C30.1861 36.3576 29.8655 36.6782 29.47 36.6782Z" fill="#FCB143"/>
<path d="M44.5624 24.6016H40.2887C40.2771 28.3919 38.8907 31.8585 36.6021 34.5293C36.1498 35.0573 36.1744 35.8423 36.666 36.334L38.7859 38.4539C42.3434 34.9126 44.5494 30.0148 44.5624 24.6016V24.6016Z" fill="#FC5327"/>
<path d="M9.61349 24.6016H5.33984C5.35282 30.0147 7.55883 34.9125 11.1163 38.4538L13.2362 36.3339C13.7278 35.8423 13.7526 35.0573 13.3001 34.5293C11.0115 31.8586 9.62507 28.392 9.61349 24.6016V24.6016Z" fill="#93D87B"/>
</svg>
