<svg width="45" height="50" viewBox="0 0 45 50" fill="none" xmlns="http://www.w3.org/2000/svg">
<path d="M25.0115 9.64903H19.1893C18.3578 9.64903 17.6836 8.97487 17.6836 8.14331V1.50768C17.6836 0.676116 18.3578 0.00195312 19.1893 0.00195312H25.0115C25.843 0.00195312 26.5172 0.676116 26.5172 1.50768V8.14331C26.5172 8.97487 25.843 9.64903 25.0115 9.64903Z" fill="#56D9DE"/>
<path d="M25.7825 0H22.8711V9.64708H25.7825C26.614 9.64708 27.2882 8.97291 27.2882 8.14135V1.50572C27.2882 0.674163 26.614 0 25.7825 0Z" fill="#19A9C3"/>
<path d="M40.4678 6.90033L37.9035 5.13924C37.9032 5.13904 37.9029 5.13874 37.9026 5.13853C37.9023 5.13833 37.902 5.13813 37.9017 5.13793L35.3376 3.37694C34.6521 2.90625 33.7147 3.08021 33.2439 3.76562C32.7731 4.45112 32.9472 5.38849 33.6327 5.85917L34.9566 6.76843L33.21 9.3115C32.7392 9.99701 32.9133 10.9344 33.5988 11.4051C33.8593 11.5839 34.1561 11.6698 34.4499 11.6698C34.9292 11.6698 35.4006 11.4414 35.6924 11.0164L37.4391 8.47331L38.763 9.38257C39.0235 9.56145 39.3203 9.64728 39.6141 9.64728C40.0935 9.64728 40.5647 9.41891 40.8567 8.99389C41.3272 8.30849 41.1532 7.37112 40.4678 6.90033V6.90033Z" fill="#164564"/>
<path d="M38.4927 12.287C34.3201 8.11444 28.7723 5.81641 22.8713 5.81641C16.9703 5.81641 11.4225 8.11444 7.2499 12.287C3.07733 16.4596 0.779297 22.0075 0.779297 27.9084C0.779297 33.8093 3.07733 39.3572 7.2499 43.5298C11.4225 47.7024 16.9703 50.0004 22.8713 50.0004C28.7723 50.0004 34.3201 47.7024 38.4927 43.5298C42.6652 39.3572 44.9633 33.8093 44.9633 27.9084C44.9633 22.0075 42.6652 16.4597 38.4927 12.287Z" fill="#164564"/>
<path d="M22.8711 44.3711C13.7934 44.3711 6.4082 36.9859 6.4082 27.9082C6.4082 18.8305 13.7935 11.4453 22.8711 11.4453C27.1971 11.4453 31.7174 19.6769 31.7174 19.6769C31.7174 19.6769 39.334 23.1566 39.334 27.9082C39.334 36.9859 31.9487 44.3711 22.8711 44.3711Z" fill="#ECF6FE"/>
<path d="M28.1415 3.01145H17.6014C16.7699 3.01145 16.0957 2.33729 16.0957 1.50572C16.0957 0.674163 16.7699 0 17.6014 0H28.1415C28.9731 0 29.6472 0.674163 29.6472 1.50572C29.6472 2.33729 28.9731 3.01145 28.1415 3.01145Z" fill="#164564"/>
<path d="M28.1414 0H22.8711V3.01145H28.1414C28.973 3.01145 29.6472 2.33729 29.6472 1.50572C29.6472 0.674163 28.973 0 28.1414 0Z" fill="#163756"/>
<path d="M22.8714 11.4453C22.8713 11.4453 22.8712 11.4453 22.8711 11.4453V26.1419C22.8711 27.1175 23.662 27.9085 24.6377 27.9085H39.3344V27.9082C39.3343 18.8305 31.949 11.4453 22.8714 11.4453V11.4453Z" fill="#FE0000"/>
</svg>
