<svg width="47" height="47" viewBox="0 0 47 47" fill="none" xmlns="http://www.w3.org/2000/svg">
<path d="M23.2117 24.3498C23.2117 25.0415 22.6421 25.6023 21.9395 25.6023H13.0342C12.3316 25.6023 11.762 25.0415 11.762 24.3498V15.8958C11.762 15.2041 12.3316 14.6433 13.0342 14.6433H21.9395C22.6421 14.6433 23.2117 15.2041 23.2117 15.8958V24.3498Z" fill="#A56941"/>
<path d="M19.1831 19.5557C19.1831 19.8688 18.9253 20.1227 18.6072 20.1227H16.3665C16.0485 20.1227 15.7906 19.8689 15.7906 19.5557V14.6432H19.183V19.5557H19.1831Z" fill="#965028"/>
<path d="M2.27531 47.0001C3.53195 47.0001 4.55062 45.9972 4.55062 44.76V26.8555C4.55062 25.6184 3.53195 24.6155 2.27531 24.6155C1.01868 24.6155 0 25.6185 0 26.8555V44.76C0 45.9972 1.01868 47.0001 2.27531 47.0001Z" fill="#343E6B"/>
<path d="M7.76787 47.0001C9.0245 47.0001 10.0432 45.9972 10.0432 44.76V26.8555C10.0432 25.6184 9.0245 24.6155 7.76787 24.6155C6.51123 24.6155 5.49255 25.6184 5.49255 26.8555V44.76C5.49255 45.9972 6.51123 47.0001 7.76787 47.0001Z" fill="#414B82"/>
<path d="M10.0431 26.8554H0V11.832C0 10.2284 1.32051 8.92834 2.94937 8.92834H7.09382C8.72268 8.92834 10.0432 10.2284 10.0432 11.832V26.8554H10.0431Z" fill="#64AFFF"/>
<path d="M5.02242 7.73664C7.19249 7.73664 8.95168 6.00473 8.95168 3.86832C8.95168 1.73191 7.19249 0 5.02242 0C2.85236 0 1.09317 1.73191 1.09317 3.86832C1.09317 6.00473 2.85236 7.73664 5.02242 7.73664Z" fill="#FFB69E"/>
<path d="M6.40436 19.3953L2.37524 12.7241C1.8031 11.7769 2.11938 10.5524 3.08146 9.98921C4.04363 9.42603 5.2874 9.73722 5.85944 10.6845L9.38636 16.524L15.0892 17.2659C16.1991 17.4102 16.9797 18.4131 16.833 19.5056C16.6863 20.5982 15.6678 21.3668 14.5581 21.2224L7.88095 20.3536C7.26825 20.274 6.72287 19.9226 6.40436 19.3953Z" fill="#FFB69E"/>
<path d="M8.63344 15.2775L5.85956 10.6846C5.28742 9.73739 4.04375 9.4261 3.08157 9.98937C2.1194 10.5526 1.80321 11.777 2.37535 12.7243L5.21954 17.4335L8.63344 15.2775Z" fill="#78BEFF"/>
<path d="M29.2973 47.0001H17.1409C16.3212 47.0001 15.6566 46.3459 15.6566 45.5389V33.571C15.6566 32.764 16.3212 32.1097 17.1409 32.1097H29.2973C30.117 32.1097 30.7815 32.764 30.7815 33.571V45.5389C30.7814 46.3459 30.117 47.0001 29.2973 47.0001Z" fill="#965028"/>
<path d="M23.2193 44.3082C25.8862 44.3082 28.0481 42.1798 28.0481 39.5543C28.0481 36.9288 25.8862 34.8004 23.2193 34.8004C20.5525 34.8004 18.3906 36.9288 18.3906 39.5543C18.3906 42.1798 20.5525 44.3082 23.2193 44.3082Z" fill="#FF3C3C"/>
<path d="M20.7909 38.7306V37.8362C20.7909 37.2126 21.2068 36.9859 21.7506 36.9859C22.288 36.9859 22.7102 37.2126 22.7102 37.8362V38.7306C22.7102 39.3542 22.288 39.581 21.7506 39.581C21.2068 39.581 20.7909 39.3542 20.7909 38.7306ZM22.0705 37.8362C22.0705 37.6284 21.9489 37.5339 21.7506 37.5339C21.5523 37.5339 21.4371 37.6284 21.4371 37.8362V38.7306C21.4371 38.9385 21.5523 39.0329 21.7506 39.0329C21.9489 39.0329 22.0705 38.9385 22.0705 38.7306V37.8362ZM24.6936 37.0614C24.6936 37.0993 24.6873 37.1433 24.6681 37.1811L22.416 41.7225C22.3712 41.817 22.2496 41.8799 22.128 41.8799C21.9105 41.8799 21.7698 41.7035 21.7698 41.5461C21.7698 41.5084 21.7826 41.4642 21.8018 41.4264L24.0474 36.8851C24.0986 36.778 24.201 36.7277 24.3162 36.7277C24.4953 36.7277 24.6936 36.8599 24.6936 37.0614ZM23.7275 40.7588V39.8645C23.7275 39.2409 24.1434 39.014 24.6872 39.014C25.2246 39.014 25.6468 39.2408 25.6468 39.8645V40.7588C25.6468 41.3824 25.2245 41.6091 24.6872 41.6091C24.1434 41.6091 23.7275 41.3824 23.7275 40.7588ZM25.0072 39.8645C25.0072 39.6565 24.8856 39.5621 24.6873 39.5621C24.4889 39.5621 24.3738 39.6565 24.3738 39.8645V40.7588C24.3738 40.9667 24.4889 41.0611 24.6873 41.0611C24.8856 41.0611 25.0072 40.9667 25.0072 40.7588V39.8645Z" fill="#FFE678"/>
<path d="M44.7525 47C43.5112 47 42.505 46.0094 42.505 44.7874V27.1019C42.505 25.8799 43.5112 24.8893 44.7525 24.8893C45.9937 24.8893 46.9999 25.8799 46.9999 27.1019V44.7874C47 46.0094 45.9937 47 44.7525 47Z" fill="#FFB69E"/>
<path d="M39.3271 47C38.0859 47 37.0797 46.0094 37.0797 44.7874V27.1019C37.0797 25.8799 38.0859 24.8893 39.3271 24.8893C40.5684 24.8893 41.5746 25.8799 41.5746 27.1019V44.7874C41.5746 46.0094 40.5684 47 39.3271 47Z" fill="#F0A086"/>
<path d="M47 35.0953V27.1019C47 25.8799 45.9938 24.8893 44.7526 24.8893C43.5113 24.8893 42.5051 25.8799 42.5051 27.1019V35.0953H47Z" fill="#3C5A73"/>
<path d="M41.5746 35.0953V27.1019C41.5746 25.8799 40.5684 24.8893 39.3271 24.8893C38.0859 24.8893 37.0797 25.8799 37.0797 27.1019V35.0953H41.5746Z" fill="#3C5064"/>
<path d="M37.0797 27.1018H47V12.262C47 10.6781 45.6957 9.39392 44.0867 9.39392H39.993C38.3841 9.39392 37.0797 10.678 37.0797 12.262V27.1018Z" fill="#1C9585"/>
<path d="M41.3334 4.69213H35.9339C35.3364 4.69213 34.852 4.21524 34.852 3.62701C34.852 3.03877 35.3364 2.56189 35.9339 2.56189H41.3334C41.9309 2.56189 42.4153 3.03877 42.4153 3.62701C42.4153 4.21524 41.9309 4.69213 41.3334 4.69213Z" fill="#3C5A73"/>
<path d="M41.881 8.21762C44.1051 8.21762 45.9081 6.44256 45.9081 4.25291C45.9081 2.06327 44.1051 0.288208 41.881 0.288208C39.6568 0.288208 37.8538 2.06327 37.8538 4.25291C37.8538 6.44256 39.6568 8.21762 41.881 8.21762Z" fill="#FFB69E"/>
<path d="M43.9777 3.3738C43.9777 3.09556 44.2068 2.87001 44.4894 2.87001H45.6549C44.9674 1.04528 43.003 -0.0487586 41.0171 0.380575C38.9841 0.820099 37.6503 2.70001 37.8782 4.69237H45.8823C45.9127 4.42551 45.9161 4.15278 45.8898 3.87767H44.4893C44.2068 3.87758 43.9777 3.65203 43.9777 3.3738Z" fill="#1C9585"/>
<path d="M32.9903 15.496L29.4966 16.8264C28.987 17.0204 28.414 16.771 28.2169 16.2692L25.8714 10.2988C25.6742 9.79702 25.9276 9.23293 26.4372 9.03887L29.9309 7.70855C30.4405 7.51449 31.0135 7.7639 31.2106 8.26566L33.5562 14.2361C33.7534 14.7379 33.4999 15.302 32.9903 15.496Z" fill="#B4D7DC"/>
<path d="M37.0878 20.2364L29.3608 17.5104C28.3006 17.1364 27.7491 15.9871 28.129 14.9434C28.5088 13.8998 29.6764 13.3566 30.7365 13.7308L37.028 15.9503L40.8054 10.8564C41.4695 9.96084 42.7452 9.76504 43.6548 10.4187C44.5643 11.0724 44.7634 12.3284 44.0994 13.2238L39.4227 19.5303C38.8924 20.2452 37.9434 20.5383 37.0878 20.2364Z" fill="#FFB69E"/>
<path d="M43.6547 10.4186C42.7453 9.76494 41.4694 9.96065 40.8053 10.8563L38.239 14.3171L41.4873 16.7459L44.0992 13.2237C44.7634 12.3283 44.5642 11.0724 43.6547 10.4186Z" fill="#39AE96"/>
</svg>
